<?xml version="1.0" standalone="no"?>
<!DOCTYPE svg PUBLIC "-//W3C//DTD SVG 20010904//EN"
 "http://www.w3.org/TR/2001/REC-SVG-20010904/DTD/svg10.dtd">
<svg version="1.0" xmlns="http://www.w3.org/2000/svg"
 width="320.000000pt" height="320.000000pt" viewBox="0 0 320.000000 320.000000"
 preserveAspectRatio="xMidYMid meet">
<metadata>
Created by potrace 1.14, written by Peter Selinger 2001-2017
</metadata>
<g transform="translate(0.000000,320.000000) scale(0.100000,-0.100000)"
fill="#000000" stroke="none">
<path d="M400 2900 l0 -100 -100 0 -100 0 0 -300 0 -300 500 0 500 0 0 -200 0
-200 -500 0 -500 0 0 -100 0 -100 500 0 500 0 0 100 0 100 100 0 100 0 0 200
0 200 -100 0 -100 0 0 100 0 100 -400 0 -400 0 0 200 0 200 500 0 500 0 0 100
0 100 -500 0 -500 0 0 -100z"/>
<path d="M1800 2900 l0 -100 200 0 200 0 0 -600 0 -600 100 0 100 0 0 600 0
600 300 0 300 0 0 100 0 100 -600 0 -600 0 0 -100z"/>
<path d="M200 800 l0 -600 600 0 600 0 0 100 0 100 -500 0 -500 0 0 200 0 200
500 0 500 0 0 100 0 100 -500 0 -500 0 0 100 0 100 500 0 500 0 0 100 0 100
-600 0 -600 0 0 -600z"/>
<path d="M2000 1300 l0 -100 -100 0 -100 0 0 -400 0 -400 100 0 100 0 0 -100
0 -100 300 0 300 0 0 100 0 100 100 0 100 0 0 -100 0 -100 100 0 100 0 0 100
0 100 -100 0 -100 0 0 100 0 100 100 0 100 0 0 300 0 300 -100 0 -100 0 0 100
0 100 -400 0 -400 0 0 -100z m800 -400 l0 -300 -100 0 -100 0 0 -100 0 -100
-300 0 -300 0 0 400 0 400 400 0 400 0 0 -300z"/>
<path d="M2400 700 l0 -100 100 0 100 0 0 100 0 100 -100 0 -100 0 0 -100z"/>
</g>
</svg>
